<?xml version="1.0" encoding="utf-8"?>
<!-- Generator: Adobe Illustrator 16.0.0, SVG Export Plug-In . SVG Version: 6.00 Build 0)  -->
<!DOCTYPE svg PUBLIC "-//W3C//DTD SVG 1.1//EN" "http://www.w3.org/Graphics/SVG/1.1/DTD/svg11.dtd">
<svg version="1.1" id="Layer_1" xmlns="http://www.w3.org/2000/svg" xmlns:xlink="http://www.w3.org/1999/xlink" x="0px" y="0px"
	 width="39.375px" height="14.413px" viewBox="4.375 17.405 39.375 14.413" enable-background="new 4.375 17.405 39.375 14.413"
	 xml:space="preserve">
<g>
	<g>
		<g>
			<path fill="#6E1810" d="M33.371,19.589c-0.592,0-0.762,0.373-0.762,0.373v-0.237c0-0.863,0-1.608,0-1.608l0,0h-1.913v0.152
				c0,0,0.118,0,0.152,0c0.355,0,0.39,0.119,0.39,0.559v4.199l0,0c0,0,0.051,0,0.152,0c0,0-0.051-0.592,0.287-0.592
				c0.391,0,0.559,0.626,1.186,0.626c0.609,0,1.625-0.373,1.625-1.981C34.488,20.859,34.336,19.589,33.371,19.589z M33.135,22.315
				c0,0.423-0.102,0.609-0.221,0.609c-0.033,0-0.084,0-0.118,0c-0.136,0-0.203-0.186-0.203-0.593c0,0,0-0.897,0-1.693v-0.017
				c0-0.051,0.017-0.66,0.271-0.66c0.237,0,0.254,0.423,0.254,0.525v1.829H33.135z M30.493,21.943c0,0.745-0.271,0.847-0.271,0.847
				c-0.051-0.051-0.034-0.203-0.034-0.271v-1.676c0-0.373-0.102-1.253-1.626-1.253c-0.931,0-1.422,0.491-1.422,0.931
				c0,0.373,0.305,0.677,0.678,0.677c0.372,0,0.677-0.305,0.677-0.677c0-0.355-0.271-0.559-0.609-0.576c0,0,0.118-0.169,0.575-0.169
				c0.406,0,0.339,0.609,0.339,0.745c0,0.779-0.931,0.728-1.286,0.813c-0.17,0.051-0.627,0.169-0.627,0.931
				c0,0.389,0.221,0.83,1.219,0.83c0.559,0,0.745-0.576,0.745-0.576s0.152,0.593,0.915,0.593c0.271,0,0.474-0.068,0.609-0.187
				c0.321-0.322,0.271-0.948,0.271-0.948h-0.152V21.943z M28.816,21.723c0,0.576-0.169,1.101-0.439,1.101
				c-0.102,0-0.119-0.389-0.119-0.474v-0.525c0-0.034,0.018-0.322,0.187-0.474c0.051-0.051,0.321-0.237,0.372-0.305
				C28.816,21.028,28.816,21.655,28.816,21.723z M7.297,22.874c0,0,0-1.236,0-2.438l0,0c0.626,0,1.067,0.508,1.067,1.236h0.152
				v-2.573H8.364c0,0.711-0.44,1.236-1.067,1.236l0,0c0-1.101,0-2.133,0-2.133c1.05,0,1.913,0.779,1.913,1.845h0.152v-1.981H4.995
				v0.152c0,0,0.119,0,0.152,0c0.491,0,0.593,0.119,0.593,0.559v3.572c0,0.44-0.102,0.559-0.593,0.559c-0.017,0-0.152,0-0.152,0
				v0.153h4.571v-2.286H9.414C9.431,21.808,8.957,22.874,7.297,22.874z M11.767,22.315v-4.199l0,0H9.854v0.152c0,0,0.119,0,0.152,0
				c0.355,0,0.389,0.119,0.389,0.559v3.471c0,0.44-0.034,0.559-0.389,0.559c-0.017,0-0.152,0-0.152,0v0.153h2.438v-0.153
				c0,0-0.119,0-0.152,0C11.801,22.874,11.767,22.755,11.767,22.315z M26.26,22.315v-4.199l0,0h-1.913v0.152c0,0,0.119,0,0.152,0
				c0.356,0,0.389,0.119,0.389,0.559v3.471c0,0.44-0.033,0.559-0.389,0.559c-0.017,0-0.152,0-0.152,0v0.153h2.438v-0.153
				c0,0-0.119,0-0.152,0C26.294,22.874,26.26,22.755,26.26,22.315z M23.822,22.315v-4.199l0,0h-1.913v0.152c0,0,0.135,0,0.152,0
				c0.355,0,0.389,0.119,0.389,0.559v3.471c0,0.44-0.034,0.559-0.389,0.559c-0.017,0-0.152,0-0.152,0v0.153h2.438v-0.153
				c0,0-0.119,0-0.152,0C23.856,22.874,23.822,22.755,23.822,22.315z M21.723,21.943c0,0.745-0.271,0.847-0.271,0.847
				c-0.051-0.051-0.034-0.203-0.034-0.271v-1.676c0-0.373-0.102-1.253-1.625-1.253c-0.931,0-1.422,0.491-1.422,0.931
				c0,0.373,0.305,0.677,0.677,0.677c0.372,0,0.677-0.305,0.677-0.677c0-0.355-0.271-0.559-0.61-0.576c0,0,0.119-0.169,0.576-0.169
				c0.406,0,0.339,0.609,0.339,0.745c0,0.779-0.931,0.728-1.287,0.813c-0.169,0.051-0.626,0.169-0.626,0.931
				c0,0.389,0.22,0.83,1.219,0.83c0.559,0,0.745-0.576,0.745-0.576s0.152,0.593,0.914,0.593c0.271,0,0.474-0.068,0.609-0.187
				c0.322-0.322,0.271-0.948,0.271-0.948h-0.152V21.943z M20.046,21.723c0,0.576-0.169,1.101-0.44,1.101
				c-0.102,0-0.119-0.389-0.119-0.474v-0.525c0-0.034,0.017-0.322,0.186-0.474c0.051-0.051,0.322-0.237,0.373-0.305
				C20.046,21.028,20.046,21.655,20.046,21.723z M15.035,18.844c0-1.422,2.201-0.609,2.201,0.999h0.152v-1.896h-0.169
				c0,0,0.051,0.288-0.271,0.288c-0.593,0-0.593-0.271-1.287-0.271c-0.44,0-1.947,0.406-1.947,1.643
				c0,1.964,2.861,1.202,2.861,2.489c0,0.203-0.084,0.83-0.711,0.83c-0.982,0-1.625-0.88-1.846-1.524
				c-0.102-0.288-0.084-0.643-0.084-0.643h-0.152v2.269h0.102c0,0,0.034-0.288,0.288-0.288c0.373,0,1.016,0.338,1.761,0.338
				c0.948,0,1.896-0.677,1.896-1.761C17.829,19.2,15.035,20.165,15.035,18.844z"/>
		</g>
	</g>
	<g>
		<g>
			<g>
				<rect x="4.995" y="25.786" fill="#6E1810" width="6.468" height="0.118"/>
			</g>
		</g>
		<g>
			<g>
				<rect x="27.987" y="25.786" fill="#6E1810" width="6.468" height="0.118"/>
			</g>
		</g>
	</g>
	<g>
		<path fill="#6E1810" d="M13.917,26.023l-0.034,0.457h-1.287v-0.068c0.017,0,0.051,0,0.085-0.017c0.034,0,0.067-0.017,0.067-0.017
			c0.017-0.018,0.034-0.018,0.051-0.051c0.017-0.018,0.017-0.034,0.017-0.068v-1.117c0-0.017,0-0.051-0.017-0.067
			c-0.017-0.017-0.017-0.034-0.051-0.051c-0.017-0.017-0.051-0.017-0.084-0.017s-0.068-0.018-0.084-0.018v-0.084h1.202v0.372h-0.085
			c-0.017-0.051-0.051-0.118-0.102-0.169c-0.051-0.068-0.102-0.102-0.135-0.102c-0.017,0-0.051,0-0.085,0c-0.034,0-0.067,0-0.102,0
			h-0.237v0.626h0.169c0.051,0,0.102,0,0.118-0.017c0.034-0.018,0.051-0.034,0.068-0.051c0.017-0.018,0.034-0.051,0.034-0.085
			c0.017-0.034,0.017-0.067,0.017-0.102h0.084v0.609h-0.084c0-0.034-0.017-0.067-0.017-0.118s-0.034-0.068-0.034-0.085
			c-0.017-0.034-0.051-0.051-0.084-0.051c-0.034-0.017-0.068-0.017-0.119-0.017H13.02v0.474c0,0.051,0,0.085,0.017,0.118
			c0,0.034,0.017,0.051,0.034,0.068c0.017,0.017,0.051,0.017,0.085,0.033c0.034,0,0.084,0,0.135,0c0.017,0,0.051,0,0.102,0
			c0.034,0,0.068,0,0.102,0s0.051,0,0.084-0.017c0.034,0,0.051-0.017,0.068-0.034c0.034-0.033,0.068-0.084,0.102-0.152
			c0.034-0.067,0.068-0.118,0.068-0.152h0.102V26.023z"/>
		<path fill="#6E1810" d="M14.764,25.955c0.034,0.034,0.051,0.051,0.067,0.085c0.017,0.034,0.017,0.085,0.017,0.118
			c0,0.102-0.034,0.187-0.119,0.254c-0.067,0.068-0.169,0.102-0.288,0.102c-0.068,0-0.119-0.016-0.169-0.033
			s-0.084-0.051-0.119-0.068l-0.017,0.068h-0.085l-0.017-0.373h0.067c0,0.034,0.017,0.068,0.034,0.102
			c0.017,0.034,0.034,0.068,0.067,0.102c0.034,0.034,0.068,0.068,0.102,0.086c0.034,0.016,0.085,0.033,0.136,0.033
			c0.068,0,0.119-0.018,0.169-0.051c0.034-0.034,0.051-0.085,0.051-0.136c0-0.034,0-0.051-0.017-0.085
			c-0.017-0.017-0.034-0.033-0.051-0.051c-0.017-0.017-0.051-0.033-0.084-0.051c-0.034-0.017-0.068-0.033-0.119-0.033
			c-0.034-0.018-0.068-0.018-0.119-0.034c-0.034-0.017-0.084-0.034-0.102-0.067c-0.034-0.034-0.051-0.051-0.084-0.102
			c-0.017-0.034-0.034-0.085-0.034-0.136c0-0.085,0.034-0.169,0.102-0.22c0.068-0.068,0.152-0.085,0.271-0.085
			c0.051,0,0.085,0,0.136,0.017c0.051,0.018,0.084,0.018,0.102,0.034l0.017-0.051h0.085l0.017,0.355H14.73
			c-0.017-0.085-0.051-0.136-0.102-0.187s-0.118-0.067-0.186-0.067s-0.102,0.017-0.136,0.051c-0.034,0.034-0.051,0.067-0.051,0.102
			s0,0.067,0.017,0.085c0.017,0.017,0.034,0.033,0.051,0.051c0.017,0.017,0.051,0.033,0.085,0.033
			c0.034,0.018,0.067,0.034,0.118,0.051c0.051,0.018,0.102,0.034,0.136,0.051C14.713,25.904,14.747,25.938,14.764,25.955z"/>
		<path fill="#6E1810" d="M15.695,26.447c-0.051,0.016-0.085,0.033-0.136,0.051c-0.051,0.016-0.102,0.016-0.152,0.016
			c-0.084,0-0.152-0.016-0.186-0.066c-0.034-0.052-0.051-0.119-0.051-0.188v-0.728h-0.203v-0.102h0.203v-0.339h0.203v0.339h0.305
			v0.102h-0.305v0.609c0,0.051,0,0.085,0,0.118c0,0.034,0.017,0.051,0.017,0.085c0.017,0.017,0.034,0.034,0.051,0.051
			c0.017,0.017,0.051,0.017,0.102,0.017c0.017,0,0.051,0,0.084,0s0.068,0,0.068-0.017V26.447z"/>
		<path fill="#6E1810" d="M16.83,26.463c-0.034,0.018-0.068,0.018-0.084,0.035c-0.034,0-0.051,0.016-0.085,0.016
			c-0.051,0-0.102-0.016-0.135-0.033c-0.034-0.033-0.051-0.068-0.068-0.119l0,0c-0.051,0.051-0.102,0.086-0.152,0.119
			s-0.119,0.033-0.203,0.033s-0.152-0.016-0.203-0.066c-0.051-0.052-0.084-0.119-0.084-0.204c0-0.034,0-0.085,0.017-0.118
			c0.017-0.034,0.034-0.068,0.051-0.085c0.017-0.017,0.051-0.034,0.068-0.051c0.034-0.017,0.051-0.034,0.084-0.034
			c0.034-0.017,0.102-0.033,0.203-0.067c0.102-0.034,0.169-0.067,0.204-0.085v-0.102c0-0.017,0-0.033,0-0.051
			c0-0.033-0.017-0.051-0.034-0.084c-0.017-0.034-0.034-0.051-0.067-0.068c-0.034-0.017-0.068-0.033-0.119-0.033
			c-0.034,0-0.068,0-0.102,0.017c-0.034,0.017-0.051,0.017-0.068,0.034c0,0.017,0,0.033,0.017,0.067
			c0,0.034,0.017,0.051,0.017,0.085c0,0.033-0.017,0.051-0.034,0.067S16,25.77,15.949,25.77c-0.034,0-0.068-0.018-0.084-0.034
			c-0.017-0.034-0.034-0.051-0.034-0.085c0-0.033,0.017-0.067,0.034-0.102c0.017-0.033,0.051-0.051,0.084-0.084
			c0.034-0.018,0.068-0.034,0.119-0.051c0.051-0.018,0.084-0.018,0.135-0.018c0.068,0,0.119,0,0.169,0.018
			c0.051,0,0.084,0.033,0.119,0.051c0.034,0.033,0.067,0.067,0.084,0.118s0.034,0.102,0.034,0.187c0,0.102,0,0.203,0,0.271
			c0,0.085,0,0.169,0,0.271c0,0.034,0,0.051,0.017,0.068s0.017,0.033,0.051,0.051c0.017,0,0.034,0.018,0.051,0.018s0.051,0,0.068,0
			v0.016H16.83z M16.44,25.888c-0.068,0.017-0.119,0.034-0.169,0.051s-0.085,0.034-0.136,0.067
			c-0.034,0.018-0.067,0.051-0.084,0.085s-0.034,0.067-0.034,0.118c0,0.068,0.017,0.102,0.051,0.136
			c0.034,0.034,0.067,0.051,0.118,0.051s0.102-0.017,0.136-0.034c0.034-0.017,0.068-0.051,0.102-0.084L16.44,25.888z"/>
		<path fill="#6E1810" d="M18.032,25.938c0,0.169-0.051,0.305-0.152,0.406c-0.102,0.118-0.22,0.169-0.355,0.169
			c-0.068,0-0.119-0.016-0.169-0.033s-0.119-0.051-0.169-0.068l-0.084,0.119l-0.068-0.018c0-0.051,0-0.118,0-0.203
			c0-0.084,0-0.152,0-0.22v-1.066c0-0.017,0-0.051-0.017-0.067c-0.017-0.018-0.034-0.051-0.051-0.051
			c-0.017-0.018-0.034-0.018-0.067-0.018c-0.034,0-0.051,0-0.085-0.017v-0.067l0.407-0.018l0.017,0.018v0.711l0,0
			c0.051-0.051,0.102-0.085,0.152-0.102c0.051-0.018,0.102-0.034,0.152-0.034c0.136,0,0.237,0.051,0.339,0.152
			S18.032,25.77,18.032,25.938z M17.812,25.955c0-0.051,0-0.102-0.017-0.169c-0.017-0.051-0.034-0.102-0.051-0.152
			c-0.017-0.051-0.051-0.085-0.102-0.102c-0.034-0.034-0.085-0.034-0.153-0.034c-0.051,0-0.102,0.018-0.135,0.034
			s-0.068,0.051-0.102,0.085v0.626c0,0.017,0.017,0.034,0.034,0.067c0.017,0.018,0.034,0.051,0.051,0.068
			c0.017,0.017,0.051,0.033,0.068,0.051c0.034,0.018,0.068,0.018,0.102,0.018c0.084,0,0.169-0.052,0.22-0.137
			C17.778,26.227,17.812,26.107,17.812,25.955z"/>
		<path fill="#6E1810" d="M18.709,26.48h-0.525v-0.068c0.017,0,0.034,0,0.051,0s0.034,0,0.051,0s0.034-0.017,0.051-0.033
			c0.017-0.018,0.017-0.034,0.017-0.068v-1.252c0-0.034,0-0.051-0.017-0.068c-0.017-0.017-0.034-0.033-0.051-0.051
			c-0.017-0.017-0.034-0.017-0.068-0.017c-0.034,0-0.067-0.017-0.084-0.017v-0.068l0.406-0.017l0.017,0.017v1.49
			c0,0.033,0,0.051,0.017,0.067c0.017,0.017,0.017,0.034,0.051,0.034c0.017,0,0.034,0.018,0.051,0.018c0.017,0,0.034,0,0.051,0
			v0.033H18.709z"/>
		<path fill="#6E1810" d="M19.369,26.48h-0.525v-0.068c0.017,0,0.034,0,0.051,0c0.017,0,0.034,0,0.051-0.017
			c0.017,0,0.034-0.017,0.051-0.034c0.017-0.017,0.017-0.033,0.017-0.067v-0.66c0-0.017,0-0.051-0.017-0.067
			c-0.017-0.018-0.034-0.034-0.051-0.051c-0.017-0.018-0.034-0.018-0.067-0.018c-0.034,0-0.051-0.017-0.068-0.017v-0.067l0.39-0.018
			l0.017,0.018v0.88c0,0.034,0,0.051,0.017,0.067c0.017,0.018,0.017,0.034,0.051,0.034c0.017,0,0.034,0.017,0.051,0.017
			s0.034,0,0.051,0v0.068H19.369z M19.234,24.957c0,0.033-0.017,0.084-0.034,0.102c-0.034,0.033-0.068,0.051-0.102,0.051
			c-0.034,0-0.068-0.018-0.102-0.051c-0.034-0.034-0.034-0.068-0.034-0.102c0-0.034,0.017-0.068,0.034-0.102
			c0.034-0.034,0.067-0.051,0.102-0.051c0.034,0,0.067,0.017,0.102,0.033C19.217,24.889,19.234,24.923,19.234,24.957z"/>
		<path fill="#6E1810" d="M20.216,25.955c0.034,0.034,0.051,0.051,0.068,0.085s0.017,0.085,0.017,0.118
			c0,0.102-0.034,0.187-0.119,0.254c-0.068,0.068-0.169,0.102-0.288,0.102c-0.067,0-0.118-0.016-0.169-0.033
			c-0.051-0.018-0.085-0.051-0.119-0.068l-0.017,0.068h-0.084l-0.017-0.373h0.068c0,0.034,0.017,0.068,0.034,0.102
			c0.017,0.034,0.034,0.068,0.068,0.102c0.034,0.034,0.068,0.068,0.102,0.086c0.034,0.016,0.084,0.033,0.135,0.033
			c0.068,0,0.119-0.018,0.169-0.051c0.034-0.034,0.051-0.085,0.051-0.136c0-0.034,0-0.051-0.017-0.085
			c-0.017-0.017-0.034-0.033-0.051-0.051c-0.017-0.017-0.051-0.033-0.084-0.051c-0.034-0.017-0.068-0.033-0.119-0.033
			c-0.034-0.018-0.067-0.018-0.118-0.034c-0.034-0.017-0.085-0.034-0.102-0.067c-0.034-0.034-0.051-0.051-0.084-0.102
			c-0.017-0.034-0.034-0.085-0.034-0.136c0-0.085,0.034-0.169,0.102-0.22c0.067-0.068,0.152-0.085,0.271-0.085
			c0.051,0,0.084,0,0.135,0.017c0.051,0.018,0.084,0.018,0.102,0.034l0.017-0.051h0.084l0.017,0.355h-0.068
			c-0.017-0.085-0.051-0.136-0.102-0.187s-0.119-0.067-0.186-0.067c-0.068,0-0.102,0.017-0.136,0.051
			c-0.034,0.034-0.051,0.067-0.051,0.102s0,0.067,0.017,0.085c0.017,0.017,0.034,0.033,0.051,0.051
			c0.017,0.017,0.051,0.033,0.084,0.033c0.034,0.018,0.068,0.034,0.119,0.051c0.051,0.018,0.102,0.034,0.135,0.051
			C20.148,25.904,20.199,25.938,20.216,25.955z"/>
		<path fill="#6E1810" d="M21.655,26.48H21.13v-0.068c0.017,0,0.034,0,0.051,0c0.017,0,0.034,0,0.051-0.017
			c0.017,0,0.034-0.017,0.051-0.034c0.017-0.017,0.017-0.033,0.017-0.067v-0.559c0-0.085-0.017-0.136-0.051-0.187
			c-0.034-0.033-0.084-0.067-0.135-0.067c-0.034,0-0.068,0-0.102,0.017c-0.034,0.018-0.068,0.034-0.085,0.051
			c-0.017,0.018-0.051,0.034-0.051,0.051c-0.017,0.018-0.017,0.034-0.034,0.051v0.627c0,0.017,0,0.051,0.017,0.067
			c0.017,0.017,0.017,0.034,0.051,0.034c0.017,0,0.034,0.017,0.051,0.017c0.017,0,0.034,0,0.051,0v0.067h-0.525v-0.051
			c0.017,0,0.034,0,0.051,0s0.034,0,0.051,0s0.034-0.017,0.051-0.033c0.017-0.018,0.017-0.034,0.017-0.068v-1.27
			c0-0.017,0-0.051-0.017-0.067s-0.034-0.051-0.051-0.051c-0.017-0.017-0.034-0.017-0.068-0.017c-0.034,0-0.067,0-0.084,0v-0.068
			l0.406-0.017l0.017,0.017V25.6l0,0c0.017-0.017,0.051-0.051,0.067-0.067c0.017-0.017,0.051-0.034,0.085-0.051
			c0.034-0.017,0.068-0.034,0.102-0.051s0.084-0.017,0.135-0.017c0.102,0,0.169,0.033,0.22,0.084
			c0.051,0.068,0.084,0.152,0.084,0.271v0.559c0,0.033,0,0.051,0.017,0.067s0.017,0.034,0.051,0.034
			c0.017,0,0.034,0.018,0.051,0.018c0.017,0,0.034,0,0.051,0v0.033H21.655z"/>
		<path fill="#6E1810" d="M23.636,26.48h-0.524v-0.068c0.017,0,0.034,0,0.051,0c0.017,0,0.034,0,0.051-0.017
			c0.017,0,0.034-0.017,0.051-0.034c0.017-0.017,0.017-0.033,0.017-0.067v-0.559c0-0.067-0.017-0.136-0.051-0.169
			c-0.034-0.034-0.084-0.068-0.135-0.068c-0.034,0-0.068,0-0.102,0.018c-0.034,0.017-0.068,0.033-0.085,0.051
			c-0.017,0.017-0.034,0.033-0.051,0.051c-0.017,0.017-0.017,0.033-0.034,0.051v0.626c0,0.034,0,0.051,0.017,0.067
			c0.017,0.018,0.017,0.034,0.051,0.034c0.017,0,0.034,0.017,0.051,0.017s0.034,0,0.051,0v0.068h-0.525v-0.068
			c0.017,0,0.034,0,0.051,0s0.034,0,0.051-0.017c0.017,0,0.034-0.017,0.051-0.034c0.017-0.017,0.017-0.033,0.017-0.067v-0.559
			c0-0.067-0.017-0.136-0.051-0.169c-0.034-0.034-0.085-0.068-0.136-0.068c-0.034,0-0.067,0-0.102,0.018
			c-0.034,0.017-0.068,0.033-0.084,0.051c-0.017,0.017-0.034,0.033-0.051,0.051c-0.017,0.017-0.034,0.033-0.034,0.051v0.626
			c0,0.017,0,0.051,0.017,0.067c0.017,0.018,0.034,0.034,0.051,0.034s0.034,0.017,0.051,0.017s0.034,0,0.051,0v0.068h-0.525v-0.068
			c0.017,0,0.034,0,0.051,0c0.017,0,0.034,0,0.051-0.017c0.017,0,0.034-0.017,0.051-0.034c0.017-0.017,0.017-0.033,0.017-0.067
			v-0.677c0-0.018,0-0.051-0.017-0.068c-0.017-0.017-0.034-0.033-0.051-0.051c-0.017-0.017-0.034-0.017-0.051-0.017
			c-0.017,0-0.034-0.017-0.067-0.017v-0.068l0.355-0.017l0.017,0.017v0.152l0,0c0.017-0.017,0.034-0.033,0.068-0.067
			c0.034-0.017,0.051-0.051,0.068-0.067c0.034-0.018,0.051-0.034,0.102-0.051c0.034-0.018,0.084-0.018,0.119-0.018
			c0.067,0,0.135,0.018,0.186,0.051c0.051,0.034,0.084,0.085,0.102,0.136c0.034-0.034,0.051-0.051,0.068-0.067
			c0.017-0.018,0.051-0.034,0.084-0.068c0.034-0.017,0.068-0.033,0.102-0.051c0.034-0.017,0.085-0.017,0.119-0.017
			c0.084,0,0.169,0.034,0.22,0.085c0.051,0.067,0.084,0.152,0.084,0.271v0.559c0,0.034,0,0.051,0.017,0.067
			c0.017,0.018,0.017,0.034,0.051,0.034c0.017,0,0.034,0.017,0.051,0.017c0.017,0,0.034,0,0.051,0v0.119H23.636z"/>
		<path fill="#6E1810" d="M24.736,26.227c-0.051,0.084-0.102,0.152-0.186,0.203c-0.085,0.051-0.17,0.084-0.271,0.084
			c-0.084,0-0.169-0.016-0.237-0.051c-0.068-0.033-0.119-0.067-0.169-0.118s-0.068-0.118-0.102-0.187
			c-0.017-0.067-0.034-0.152-0.034-0.22s0.017-0.136,0.034-0.203s0.051-0.136,0.102-0.187c0.034-0.051,0.102-0.102,0.152-0.118
			c0.068-0.034,0.135-0.051,0.203-0.051c0.085,0,0.152,0.017,0.203,0.034c0.051,0.017,0.102,0.051,0.136,0.102
			c0.034,0.033,0.051,0.084,0.067,0.152c0.018,0.067,0.018,0.118,0.018,0.186v0.068h-0.711c0,0.067,0,0.135,0.017,0.186
			c0.017,0.051,0.034,0.102,0.068,0.152s0.068,0.068,0.119,0.102c0.051,0.018,0.102,0.034,0.169,0.034
			c0.067,0,0.118-0.017,0.169-0.051s0.085-0.085,0.136-0.169L24.736,26.227z M24.482,25.82c0-0.034,0-0.085-0.017-0.136
			c0-0.051-0.017-0.085-0.034-0.118c-0.017-0.034-0.034-0.068-0.067-0.085c-0.034-0.017-0.068-0.034-0.119-0.034
			c-0.085,0-0.136,0.034-0.187,0.102c-0.051,0.068-0.084,0.152-0.084,0.271H24.482z"/>
		<path fill="#6E1810" d="M26.057,26.48h-0.524v-0.068c0.017,0,0.034,0,0.051,0s0.034,0,0.051-0.017
			c0.017,0,0.034-0.017,0.051-0.034c0.017-0.017,0.017-0.033,0.017-0.067v-0.559c0-0.085-0.017-0.136-0.051-0.187
			c-0.033-0.033-0.084-0.067-0.135-0.067c-0.034,0-0.068,0-0.102,0.017c-0.034,0.018-0.068,0.034-0.085,0.051
			c-0.017,0.018-0.051,0.034-0.051,0.051c-0.017,0.018-0.017,0.034-0.034,0.051v0.627c0,0.017,0,0.051,0.018,0.067
			c0.017,0.017,0.033,0.034,0.051,0.034c0.017,0,0.033,0.017,0.051,0.017c0.017,0,0.033,0,0.051,0v0.067h-0.525v-0.051
			c0.018,0,0.034,0,0.051,0c0.018,0,0.034,0,0.051-0.017c0.018,0,0.034-0.017,0.051-0.034c0.018-0.017,0.018-0.033,0.018-0.067
			v-0.66c0-0.017,0-0.051-0.018-0.067c-0.017-0.018-0.033-0.034-0.051-0.051c-0.017-0.018-0.033-0.018-0.051-0.018
			c-0.017,0-0.033,0-0.067,0v-0.067l0.355-0.017l0.017,0.017v0.152l0,0c0.018-0.017,0.034-0.034,0.068-0.067
			c0.033-0.018,0.051-0.051,0.067-0.068c0.034-0.017,0.067-0.033,0.102-0.051c0.034-0.017,0.085-0.017,0.118-0.017
			c0.102,0,0.187,0.034,0.237,0.102s0.067,0.152,0.067,0.254v0.559c0,0.034,0,0.051,0.018,0.067
			c0.017,0.018,0.017,0.034,0.051,0.034c0.017,0,0.033,0.017,0.051,0.017c0.017,0,0.033,0,0.051,0v0.068H26.057z"/>
		<path fill="#6E1810" d="M26.854,26.447c-0.051,0.016-0.086,0.033-0.137,0.051c-0.051,0.016-0.102,0.016-0.152,0.016
			c-0.084,0-0.152-0.016-0.186-0.066c-0.034-0.052-0.051-0.119-0.051-0.188v-0.728h-0.203v-0.102h0.203v-0.339h0.203v0.339h0.305
			v0.102h-0.305v0.609c0,0.051,0,0.085,0,0.118c0,0.034,0.018,0.051,0.018,0.085c0.016,0.017,0.033,0.034,0.051,0.051
			c0.016,0.017,0.051,0.017,0.102,0.017c0.016,0,0.051,0,0.084,0s0.068,0,0.068-0.017V26.447z"/>
	</g>
	<g>
		
			<linearGradient id="SVGID_1_" gradientUnits="userSpaceOnUse" x1="1838.96" y1="-2396.1592" x2="1845.5066" y2="-2414.1458" gradientTransform="matrix(0.1693 0 0 -0.1693 -273.2449 -388.2487)">
			<stop  offset="0" style="stop-color:#611205"/>
			<stop  offset="1" style="stop-color:#946E60"/>
		</linearGradient>
		<path fill="url(#SVGID_1_)" d="M42.023,18.15c-0.221,0.322-2.303,3.318-6.281,2.827c0,0-0.525-2.065-0.424-2.455
			C35.336,18.523,38.434,16.762,42.023,18.15z"/>
		
			<linearGradient id="SVGID_2_" gradientUnits="userSpaceOnUse" x1="1839.0527" y1="-2396.144" x2="1845.5977" y2="-2414.126" gradientTransform="matrix(0.1693 0 0 -0.1693 -273.2449 -388.2487)">
			<stop  offset="0" style="stop-color:#611205"/>
			<stop  offset="1" style="stop-color:#946E60"/>
		</linearGradient>
		<path fill="url(#SVGID_2_)" d="M42.04,18.15c-0.22,0.322-2.302,3.318-6.281,2.827c0,0-0.524-2.065-0.423-2.455
			C35.336,18.523,38.451,16.762,42.04,18.15z"/>
		
			<linearGradient id="SVGID_3_" gradientUnits="userSpaceOnUse" x1="1824.9121" y1="-2430.5278" x2="1832.808" y2="-2431.3577" gradientTransform="matrix(0.1693 0 0 -0.1693 -273.2449 -388.2487)">
			<stop  offset="0" style="stop-color:#793713"/>
			<stop  offset="1" style="stop-color:#C58F30"/>
		</linearGradient>
		<path fill="url(#SVGID_3_)" d="M36.622,23.111c0.677,0.034,1.236,0.169,1.236,0.321c0,0.051-0.118,0.102-0.288,0.136
			c-0.457,0.067-0.932,0.067-1.456,0c-0.372-0.051-0.728-0.136-0.728-0.271C35.403,23.162,35.945,23.077,36.622,23.111z"/>
		
			<radialGradient id="SVGID_4_" cx="2623.9746" cy="-3485.4604" r="36.2151" gradientTransform="matrix(0.1162 0 0 -0.1162 -265.6548 -383.1006)" gradientUnits="userSpaceOnUse">
			<stop  offset="0" style="stop-color:#89150D"/>
			<stop  offset="0.0893" style="stop-color:#85160D"/>
			<stop  offset="0.2114" style="stop-color:#78160D"/>
			<stop  offset="0.3526" style="stop-color:#65160E"/>
			<stop  offset="0.507" style="stop-color:#4C160D"/>
			<stop  offset="0.5399" style="stop-color:#46160D"/>
			<stop  offset="1" style="stop-color:#52001C"/>
		</radialGradient>
		<path fill="url(#SVGID_4_)" stroke="#FFF59B" stroke-width="0.058" stroke-miterlimit="10" d="M43.191,18.404
			c-0.102,1.253-0.355,2.489-0.795,3.539c-0.864,2.032-2.219,3.522-3.218,4.233l0,0c-0.999-0.711-2.37-2.184-3.217-4.216
			c-0.44-1.05-0.694-2.286-0.796-3.539c0,0,1.473-0.999,4.029-0.999C41.685,17.405,43.191,18.404,43.191,18.404z"/>
		<g>
			<g>
				<g>
					
						<linearGradient id="SVGID_5_" gradientUnits="userSpaceOnUse" x1="1831.999" y1="-2414.1689" x2="1858.2383" y2="-2414.1689" gradientTransform="matrix(0.1693 0 0 -0.1693 -273.2449 -388.2487)">
						<stop  offset="0" style="stop-color:#FCCD53"/>
						<stop  offset="0.1" style="stop-color:#B3701D"/>
						<stop  offset="0.17" style="stop-color:#7D4516"/>
						<stop  offset="0.28" style="stop-color:#BC7E23"/>
						<stop  offset="0.37" style="stop-color:#C58F30"/>
						<stop  offset="0.48" style="stop-color:#FFF7B2"/>
						<stop  offset="0.6" style="stop-color:#C58F30"/>
						<stop  offset="0.81" style="stop-color:#7D4400"/>
						<stop  offset="0.92" style="stop-color:#D28E28"/>
						<stop  offset="1" style="stop-color:#944B00"/>
					</linearGradient>
					<path fill="url(#SVGID_5_)" d="M39.111,21.858l0.017-0.017C39.111,21.841,39.111,21.858,39.111,21.858z M39.789,20.216
						l0.016-0.017C39.789,20.216,39.789,20.216,39.789,20.216z M39.855,19.843c-0.102-0.017-0.186-0.034-0.287-0.051l0,0
						c0.051-0.017,0.102-0.068,0.084-0.119c-0.017-0.152-0.321-0.152-0.305,0.085l0,0c-1.777-0.373-1.642-1.033-1.032-1.033
						c0.593,0,1.117,0.728,1.117,0.728l1.135-0.88c-0.288,0.118-0.61-0.034-0.999-0.169h-0.018c0.068-0.017,0.119-0.068,0.119-0.136
						c0-0.186-0.355-0.22-0.355,0.068l0,0c-0.152-0.034-0.305-0.051-0.491-0.051c-0.897,0-1.423,0.559-1.423,1.185
						c0,1.389,3.354,0.813,3.354,2.032c0,0.237-0.288,0.542-0.288,0.542s-0.677-0.576-1.524-0.66h-0.017l0,0
						c0.034-0.034,0.051-0.068,0.034-0.102c-0.018-0.152-0.339-0.136-0.322,0.102H38.62c-0.914,0.051-1.423,0.559-1.592,0.694
						c-0.187,0.136-0.102,0.237,0.034,0.203c0.084-0.017,0.49-0.22,0.644-0.237c0.694-0.119,2.167,0.83,2.167,0.83
						s1.49-0.88,1.49-1.761C41.38,20.097,40.145,19.894,39.855,19.843z M39.534,19.623c0.034,0,0.067,0.017,0.085,0.068
						c0.017,0.085-0.102,0.085-0.119,0.051c0,0-0.067,0.017-0.051,0.085c0.068,0.203,0.406,0.22,0.525,0.254c0,0-0.018,0-0.033,0
						c-0.018,0-0.306,0.067-0.441-0.034c-0.017-0.017-0.084-0.017-0.118,0.017c0,0,0.085,0,0.152,0.034c0.118,0.068,0.288,0,0.524,0
						c0.119,0,0.221,0.102,0.221,0.22s-0.084,0.22-0.221,0.22h-0.016c0.117,0,0.186-0.084,0.186-0.186
						c0-0.119-0.102-0.204-0.203-0.204c-0.068,0-0.152,0-0.236,0.051c0.033-0.017,0.084-0.034,0.203-0.034
						c0.102,0,0.186,0.084,0.186,0.187c0,0.102-0.068,0.169-0.17,0.169h-0.016c0.102,0,0.152-0.051,0.152-0.152
						s-0.086-0.186-0.17-0.186c-0.186,0-0.203,0.067-0.203,0.067s0.033-0.034,0.17-0.034c0.102,0,0.168,0.068,0.168,0.169
						s-0.051,0.119-0.135,0.119h-0.018c0.086,0,0.119-0.017,0.119-0.102c0-0.085-0.068-0.136-0.152-0.136s-0.221,0.017-0.186,0.187
						c-0.052,0-0.119-0.034-0.137-0.085c-0.017-0.067,0.018-0.152,0.018-0.152c-0.051,0.051-0.119-0.017-0.17-0.068
						s-0.118-0.067-0.135-0.067c-0.018,0-0.034,0-0.051,0c-0.018-0.017,0.017-0.085,0.102-0.119c0.051-0.017,0.118,0,0.118,0
						s-0.085-0.084-0.102-0.169C39.365,19.691,39.449,19.606,39.534,19.623z M40.297,20.182L40.297,20.182
						c0.067,0.034,0.102,0.102,0.102,0.186c0,0.119-0.085,0.203-0.188,0.203h-0.016l0,0c0.084-0.017,0.152-0.102,0.169-0.22
						C40.348,20.284,40.33,20.216,40.297,20.182z M40.686,20.453L40.686,20.453c0.068,0.034,0.102,0.084,0.085,0.135
						c-0.017,0.084-0.118,0.119-0.203,0.102h-0.017l0,0c0.084,0,0.186-0.034,0.186-0.119C40.736,20.538,40.72,20.487,40.686,20.453z
						 M40.787,20.504L40.787,20.504c0.068,0.034,0.102,0.084,0.085,0.135c-0.017,0.084-0.118,0.119-0.203,0.102h-0.017l0,0
						c0.084,0,0.186-0.034,0.186-0.119C40.838,20.571,40.821,20.538,40.787,20.504z M40.449,20.673c-0.018,0-0.018,0-0.018,0l0,0
						c0.102,0,0.187-0.067,0.203-0.169c0-0.051-0.017-0.102-0.067-0.136l0,0c0.067,0.034,0.118,0.102,0.102,0.169
						C40.669,20.622,40.567,20.69,40.449,20.673z M40.584,20.47c-0.017,0.102-0.118,0.169-0.22,0.169h-0.017l0,0
						c0.102,0,0.186-0.068,0.203-0.186c0-0.051-0.018-0.119-0.051-0.152l0,0C40.551,20.334,40.602,20.402,40.584,20.47z
						 M40.482,20.419c-0.017,0.119-0.102,0.187-0.203,0.187h-0.018l0,0c0.103,0,0.188-0.085,0.188-0.203
						c0-0.068-0.018-0.119-0.051-0.153l0,0C40.449,20.284,40.5,20.352,40.482,20.419z M39.619,18.269
						c0,0.085-0.136,0.068-0.136,0.017c0,0-0.067,0-0.067,0.068c0,0.237,0.322,0.373,0.424,0.44c0,0-0.018,0-0.035,0
						c-0.016,0-0.305-0.051-0.423-0.186c-0.017-0.017-0.085-0.051-0.136-0.034c0,0,0.102,0.017,0.136,0.102
						c0.017,0.017,0.067,0.102,0.458,0.186c0,0,0,0,0.016,0c-0.338-0.084-0.355,0.237-0.355,0.237
						c-0.051-0.017-0.118-0.068-0.118-0.136c0-0.084,0.067-0.135,0.067-0.135c-0.067,0.034-0.118-0.051-0.152-0.119
						c-0.033-0.068-0.102-0.102-0.118-0.119c-0.017,0-0.034,0-0.034-0.017c-0.017-0.034,0.051-0.085,0.136-0.085
						c0.051,0,0.118,0.034,0.118,0.034s-0.051-0.119-0.051-0.22C39.365,18.167,39.619,18.1,39.619,18.269z M38.941,18.641
						c0.018,0,0.034,0,0.034,0c0,0.068-0.085,0.085-0.085-0.034c0-0.068,0.102-0.084,0.102-0.084c-0.118,0-0.118,0.034-0.186,0.034
						c-0.068,0-0.119-0.068-0.152-0.084c-0.034-0.017-0.051,0-0.051,0s0.033-0.085,0.135,0.017c0,0-0.017-0.084,0.068-0.051
						c0,0-0.034,0-0.034,0.034c0,0.034,0.051,0.051,0.085,0.034c0.033-0.017,0.067-0.034,0.152-0.034
						c0.169,0,0.169,0.254,0.169,0.271c0,0.034-0.017,0.034-0.034,0c-0.017-0.118-0.084-0.186-0.135-0.186
						C38.925,18.557,38.908,18.641,38.941,18.641z M38.84,21.232c0.034,0,0.068,0.017,0.085,0.067
						c0.017,0.085-0.102,0.102-0.118,0.051c0,0-0.068,0.017-0.051,0.085c0.067,0.22,0.423,0.237,0.541,0.271c0,0-0.017,0-0.033,0
						c-0.018,0-0.322,0.067-0.457-0.034c-0.018-0.017-0.085-0.017-0.136,0.017c0,0,0.085,0,0.169,0.051c0.119,0.068,0.305,0,0.559,0
						c0.136,0,0.237,0.102,0.237,0.237c0,0.136-0.085,0.237-0.22,0.22h-0.018c0.119,0,0.203-0.084,0.203-0.203
						s-0.102-0.22-0.22-0.22c-0.085,0-0.169,0-0.254,0.051c0.034-0.017,0.085-0.034,0.203-0.034s0.203,0.084,0.203,0.203
						s-0.067,0.186-0.187,0.186h-0.017c0.102,0,0.169-0.051,0.169-0.152s-0.084-0.186-0.186-0.186c-0.187,0-0.221,0.068-0.221,0.068
						s0.034-0.051,0.17-0.051c0.102,0,0.169,0.084,0.169,0.169c0,0.102-0.051,0.119-0.152,0.119h-0.017
						c0.084,0,0.118-0.017,0.118-0.102s-0.067-0.152-0.152-0.152s-0.237,0.017-0.203,0.203c-0.051,0-0.118-0.034-0.136-0.084
						c-0.017-0.085,0.018-0.152,0.018-0.152c-0.051,0.051-0.119-0.017-0.17-0.068s-0.118-0.068-0.135-0.068
						c-0.018,0-0.034,0-0.051,0c-0.018-0.017,0.017-0.084,0.102-0.118c0.051-0.017,0.118,0,0.118,0s-0.085-0.085-0.118-0.187
						C38.671,21.316,38.756,21.215,38.84,21.232z M39.636,21.824L39.636,21.824c0.067,0.034,0.103,0.102,0.103,0.203
						c0,0.119-0.086,0.22-0.188,0.22h-0.017l0,0c0.085-0.017,0.169-0.102,0.169-0.237C39.703,21.926,39.67,21.875,39.636,21.824z
						 M39.941,22.129c-0.018,0.119-0.119,0.187-0.238,0.169c-0.017,0-0.017,0-0.033,0l0,0c0.102,0,0.203-0.084,0.203-0.186
						c0-0.068-0.018-0.119-0.051-0.152l0,0C39.906,21.994,39.957,22.062,39.941,22.129z M39.924,22.011L39.924,22.011
						c0.068,0.034,0.119,0.102,0.119,0.169c0,0.102-0.119,0.169-0.238,0.152c-0.016,0-0.016,0-0.033,0l0,0
						c0.102,0,0.203-0.067,0.203-0.169C39.992,22.095,39.957,22.044,39.924,22.011z M39.84,22.078
						c-0.018,0.119-0.119,0.203-0.221,0.187h-0.018l0,0c0.102,0,0.188-0.085,0.203-0.203c0-0.068-0.016-0.119-0.051-0.169l0,0
						C39.805,21.926,39.855,21.994,39.84,22.078z M38.23,21.808c-0.067-0.034,0-0.085,0-0.085c-0.135,0-0.102-0.067-0.102-0.067
						s0,0.017,0.034,0.034s0.102,0,0.152,0.034c0.051,0.051,0.017,0.068,0.102,0.152c0,0-0.067-0.084-0.017-0.118
						c0.067-0.085,0.118,0,0.084,0.034c0,0,0-0.017-0.017-0.017c-0.034-0.034-0.067,0.034-0.017,0.102
						c0.033,0.034,0.118,0.017,0.22-0.051c0.034-0.017,0.051-0.017,0.034,0.017c-0.018,0.017-0.187,0.169-0.288,0.068
						c-0.051-0.051-0.067-0.085-0.085-0.119c-0.017-0.034-0.051-0.051-0.084-0.034C38.197,21.791,38.23,21.808,38.23,21.808z
						 M39.924,22.739l-0.033,0.017c0,0-1.474-0.948-2.168-0.83c-0.152,0.017-0.559,0.22-0.643,0.237c0,0-0.018,0-0.035,0
						c-0.017,0-0.017,0-0.017,0c0.187-0.136,0.694-0.661,1.626-0.694l0,0c0.017,0.034,0.033,0.068,0.067,0.102l0,0
						c-0.017,0-0.017,0-0.034,0c-0.49,0.017-0.947,0.152-1.27,0.373c0,0,0.305-0.186,0.863-0.034
						c0.729,0.203,1.574,0.711,1.574,0.711l0.525-0.39c0,0-0.643-0.575-1.49-0.643h-0.017c-0.034-0.034-0.067-0.068-0.085-0.102
						h0.018c0.88,0.034,1.625,0.66,1.625,0.66l0.034,0.017c0.169-0.169,0.372-0.474,0.372-0.694c0-1.27-3.387-0.626-3.387-2.049
						c0-0.609,0.627-1.066,1.389-1.066c0.136,0,0.305,0.017,0.44,0.051c0,0,0.017,0.051,0.034,0.068
						c-0.762-0.153-1.101,0.102-1.101,0.102s0.677-0.085,1.27,0.626l0.626-0.44c-0.219-0.102-0.439-0.186-0.609-0.237
						c-0.033-0.034-0.033-0.068-0.033-0.068c0.389,0.119,0.779,0.305,0.779,0.305l-0.779,0.576c0,0-0.406-0.677-1.236-0.66
						c-0.575,0.017-0.813,0.813,1.151,1.202l0,0c0.017,0.017,0.034,0.051,0.051,0.084l0,0c-1.489-0.288-1.794-0.83-1.625-1.101
						c0,0-0.237,0.22-0.237,0.525c0,1.422,3.387,0.762,3.387,2.015c0,0.237-0.085,0.44-0.152,0.508c0,0,0.423-0.458,0.423-0.762
						c0-0.779-1.05-1.066-1.337-1.117c-0.068-0.017-0.137-0.017-0.204-0.034H39.67c-0.034-0.017-0.102-0.067-0.119-0.102l0,0
						c0.102,0.017,0.221,0.034,0.322,0.051c0.287,0.034,1.422,0.339,1.422,1.118C41.295,21.773,40.262,22.519,39.924,22.739z
						 M39.026,20.216c0.034,0,0.051-0.034,0.051-0.034c-0.017-0.017-0.034-0.034-0.034-0.051c0-0.034,0.018-0.051,0.051-0.051
						c0.034,0,0.051,0.017,0.051,0.051c0,0.034-0.033,0.118-0.135,0.118s-0.17-0.084-0.17-0.186c0-0.068,0.051-0.135,0.102-0.152
						c0,0-0.169,0.051-0.169,0.186c0,0.034,0,0.034,0.017,0.051c0.018,0.017-0.033,0.068-0.051,0.051
						c-0.084-0.118,0.034-0.22,0.034-0.22c-0.051,0.034-0.067,0.135-0.271,0.135c-0.034,0-0.085-0.017-0.136-0.068
						c-0.017-0.017-0.102-0.169-0.152-0.169c-0.067,0-0.051,0.067-0.017,0.067c0,0-0.051,0-0.051-0.034s0.017-0.034,0.017-0.034
						s-0.118,0.051-0.118-0.051c0,0,0.017,0.034,0.051,0.034c0.051,0,0.067-0.017,0.102-0.017c0.033,0,0.051,0.034,0.067,0.051
						c0.017,0.017,0.034,0.034,0.034,0.034c0-0.017,0-0.034,0-0.068s-0.018-0.187-0.102-0.187c-0.068-0.017-0.085,0.017-0.085,0.051
						c0,0.017,0.017,0.034,0.034,0.034c0.017,0,0.017-0.017,0.017-0.017s-0.017,0.051-0.034,0.051c-0.033,0-0.067-0.017-0.067-0.068
						c0-0.051,0.034-0.067,0.067-0.084c0.034-0.017,0.068,0,0.068,0s0,0-0.034,0c-0.136,0-0.187,0.152-0.321,0.152
						c-0.085,0-0.102-0.119-0.17-0.119c-0.033,0-0.033,0.017-0.033,0.017s0.017-0.034,0.033-0.034c0.051,0,0.102,0.067,0.102,0.067
						c-0.017-0.034,0.018-0.067,0.034-0.067s0.034,0.017,0.034,0.017h-0.018c-0.017,0-0.033,0.017-0.033,0.034
						c0,0.017,0.017,0.034,0.033,0.034l0,0c0.068,0,0.17-0.102,0.17-0.102s-0.034,0-0.085,0c-0.169,0-0.22-0.102-0.22-0.186
						c0-0.085,0.051-0.119,0.051-0.169c0-0.017-0.018-0.034-0.051-0.051c-0.034,0-0.034,0.034-0.034,0.034
						c-0.017-0.067,0.051-0.051,0.051-0.051c-0.067-0.118-0.017-0.135-0.017-0.135c-0.034,0.068,0.084,0.135,0.051,0.237
						c-0.018,0.034-0.018,0.051-0.034,0.068c-0.017,0.051,0,0.068,0,0.068c0.017-0.136,0.152-0.102,0.152-0.034
						c0,0.068-0.051,0.051-0.051,0.051c0.017,0,0.034-0.051-0.017-0.051s-0.068,0.051-0.051,0.085
						c0.084,0.203,0.372,0.034,0.49,0.152c0.068,0.067,0.068,0.169,0.068,0.22c0,0.017,0,0.017,0,0.017
						c0-0.051,0.067-0.135,0.152-0.135c0.186,0,0.169,0.203,0.067,0.203c-0.017,0-0.051-0.034-0.051-0.034
						c0.067,0.034,0.102-0.119-0.034-0.119c-0.169,0-0.152,0.288,0,0.288c0.187,0,0.237-0.22,0.508-0.22
						c0.119,0,0.221,0.152,0.221,0.152l-0.034,0.017c-0.051-0.067-0.102-0.084-0.187-0.084c-0.084,0-0.135,0.068-0.152,0.135
						C38.874,20.165,38.941,20.216,39.026,20.216z"/>
				</g>
			</g>
		</g>
		<g>
			<g>
				<g>
					
						<linearGradient id="SVGID_6_" gradientUnits="userSpaceOnUse" x1="1866.4521" y1="-2421.792" x2="1823.92" y2="-2421.792" gradientTransform="matrix(0.1693 0 0 -0.1693 -273.2449 -388.2487)">
						<stop  offset="0" style="stop-color:#F9B33C"/>
						<stop  offset="0.07" style="stop-color:#B3701D"/>
						<stop  offset="0.17" style="stop-color:#7D4516"/>
						<stop  offset="0.28" style="stop-color:#BC7E23"/>
						<stop  offset="0.37" style="stop-color:#C58F30"/>
						<stop  offset="0.48" style="stop-color:#FFF7B2"/>
						<stop  offset="0.6" style="stop-color:#C58F30"/>
						<stop  offset="0.81" style="stop-color:#7D4400"/>
						<stop  offset="0.92" style="stop-color:#FFF7B2"/>
						<stop  offset="1" style="stop-color:#DC9F36"/>
					</linearGradient>
					<path fill="url(#SVGID_6_)" d="M39.162,17.879c-2.286,0-3.606,0.847-3.606,0.847c0.271,3.335,2.252,6.01,3.606,6.975l0,0
						c1.354-0.965,3.318-3.64,3.605-6.975C42.768,18.726,41.431,17.879,39.162,17.879z M39.534,25.329
						c-0.034,0.034-0.152,0.102-0.254,0.118c-0.102,0-0.187-0.051-0.187-0.118s0.051-0.067,0.051-0.067
						c-0.033,0.033,0,0.102,0.051,0.102c0.119,0,0.102-0.221-0.033-0.221c-0.237,0-0.254,0.39,0.067,0.39
						c0.051,0,0.102-0.017,0.102-0.017l-0.017,0.033c-0.136,0.034-0.355-0.017-0.355-0.236c0-0.102,0.084-0.254,0.186-0.254
						c0.119,0,0.152,0.067,0.152,0.067c-0.102-0.187-0.406-0.102-0.406,0.187c0,0.102,0.068,0.169,0.068,0.169v0.017
						c-1.27-1.066-2.93-3.437-3.285-6.366c0,0,0.034,0.135,0.203,0.135c0.17,0,0.271-0.186,0.203-0.338c0,0,0.018,0.271-0.22,0.271
						s-0.254-0.339-0.085-0.508l0.051-0.017c0,0-0.135,0.135-0.135,0.288c0,0.288,0.321,0.203,0.321,0
						c0-0.186-0.169-0.152-0.169-0.034c0,0.051,0.051,0.068,0.051,0.068s-0.119,0.067-0.119-0.085c0-0.169,0.152-0.288,0.254-0.338
						s1.27-0.61,3.115-0.61c1.863,0,3.014,0.559,3.133,0.61s0.254,0.169,0.254,0.338s-0.119,0.085-0.119,0.085
						s0.051-0.017,0.051-0.068c0-0.119-0.169-0.152-0.169,0.034c0,0.203,0.321,0.271,0.321,0c0-0.152-0.135-0.288-0.135-0.288
						l0.051,0.017c0.17,0.169,0.135,0.508-0.084,0.508c-0.238,0-0.221-0.271-0.221-0.271c-0.068,0.152,0.033,0.338,0.203,0.338
						s0.203-0.135,0.203-0.135C42.311,21.909,40.787,24.211,39.534,25.329z"/>
				</g>
			</g>
		</g>
		<g>
			<g>
				<g>
					
						<linearGradient id="SVGID_7_" gradientUnits="userSpaceOnUse" x1="1819.6738" y1="-2410.8906" x2="1861.66" y2="-2426.1724" gradientTransform="matrix(0.1693 0 0 -0.1693 -273.2449 -388.2487)">
						<stop  offset="0" style="stop-color:#F9B33C"/>
						<stop  offset="0.07" style="stop-color:#B3701D"/>
						<stop  offset="0.17" style="stop-color:#7D4516"/>
						<stop  offset="0.28" style="stop-color:#BC7E23"/>
						<stop  offset="0.37" style="stop-color:#C58F30"/>
						<stop  offset="0.48" style="stop-color:#FFF7B2"/>
						<stop  offset="0.6" style="stop-color:#C58F30"/>
						<stop  offset="0.81" style="stop-color:#7D4400"/>
						<stop  offset="0.92" style="stop-color:#FFF7B2"/>
						<stop  offset="1" style="stop-color:#DC9F36"/>
					</linearGradient>
					<path fill="url(#SVGID_7_)" d="M39.162,17.643c-2.422,0-3.81,0.914-3.81,0.914c0.102,1.202,0.372,2.37,0.796,3.369
						c0.813,1.914,2.065,3.336,2.996,4.013l0,0c0.949-0.677,2.201-2.083,2.997-3.996c0.423-0.999,0.694-2.167,0.796-3.369
						C42.972,18.557,41.549,17.643,39.162,17.643z M39.162,25.803L39.162,25.803c-1.405-0.998-3.42-3.741-3.708-7.162
						c0,0,1.354-0.863,3.708-0.863c2.319,0,3.707,0.863,3.707,0.863C42.582,22.062,40.551,24.821,39.162,25.803z"/>
				</g>
			</g>
		</g>
		<g>
			<g>
				<g>
					
						<linearGradient id="SVGID_8_" gradientUnits="userSpaceOnUse" x1="1868.9111" y1="-2421.7412" x2="1821.3875" y2="-2421.7412" gradientTransform="matrix(0.1693 0 0 -0.1693 -273.2449 -388.2487)">
						<stop  offset="0" style="stop-color:#F9B33C"/>
						<stop  offset="0.07" style="stop-color:#B3701D"/>
						<stop  offset="0.17" style="stop-color:#7D4516"/>
						<stop  offset="0.28" style="stop-color:#BC7E23"/>
						<stop  offset="0.37" style="stop-color:#C58F30"/>
						<stop  offset="0.48" style="stop-color:#FFF7B2"/>
						<stop  offset="0.6" style="stop-color:#C58F30"/>
						<stop  offset="0.81" style="stop-color:#7D4400"/>
						<stop  offset="0.92" style="stop-color:#FFF7B2"/>
						<stop  offset="1" style="stop-color:#DC9F36"/>
					</linearGradient>
					<path fill="url(#SVGID_8_)" d="M39.162,17.405c-2.557,0-4.029,0.999-4.029,0.999c0.102,1.27,0.355,2.506,0.795,3.539
						c0.863,2.032,2.219,3.504,3.217,4.215l0,0c1-0.711,2.371-2.184,3.217-4.232c0.441-1.05,0.695-2.286,0.797-3.539
						C43.191,18.404,41.685,17.405,39.162,17.405z M42.158,21.926c-0.813,1.914-2.064,3.336-2.996,3.996l0,0
						c-0.948-0.678-2.201-2.083-2.997-4.013c-0.423-0.999-0.694-2.15-0.796-3.37c0,0,1.389-0.914,3.81-0.914
						c2.388,0,3.81,0.914,3.81,0.914C42.869,19.759,42.582,20.927,42.158,21.926z"/>
				</g>
			</g>
		</g>
		<g>
			<path fill="#793713" d="M41.38,24.398c0-0.169,0.067-0.119,0.067-0.288c0.221,0,0.44,0.017,0.678,0.051
				c0.389,0.051,0.729,0.136,0.744,0.271c0.018,0.136-0.559,0.203-0.998,0.17C41.617,24.584,41.363,24.5,41.38,24.398z"/>
			
				<linearGradient id="SVGID_9_" gradientUnits="userSpaceOnUse" x1="1858.3457" y1="-2436.3438" x2="1863.2686" y2="-2436.3438" gradientTransform="matrix(0.1693 0 0 -0.1693 -273.2449 -388.2487)">
				<stop  offset="0" style="stop-color:#944B00"/>
				<stop  offset="1" style="stop-color:#FFF7B2"/>
			</linearGradient>
			<path fill="url(#SVGID_9_)" d="M41.38,24.398c0-0.169,0-0.119,0-0.288c0.22,0,0.508,0.017,0.745,0.051l0.017,0.204
				C42.091,24.313,41.431,24.229,41.38,24.398z"/>
			<g>
				
					<linearGradient id="SVGID_10_" gradientUnits="userSpaceOnUse" x1="1868.8555" y1="-2434.1563" x2="1819.7246" y2="-2434.1563" gradientTransform="matrix(0.1693 0 0 -0.1693 -273.2449 -388.2487)">
					<stop  offset="0" style="stop-color:#FCCD53"/>
					<stop  offset="0.1" style="stop-color:#B3701D"/>
					<stop  offset="0.17" style="stop-color:#7D4516"/>
					<stop  offset="0.28" style="stop-color:#BC7E23"/>
					<stop  offset="0.37" style="stop-color:#C58F30"/>
					<stop  offset="0.48" style="stop-color:#FFF7B2"/>
					<stop  offset="0.6" style="stop-color:#C58F30"/>
					<stop  offset="0.81" style="stop-color:#7D4400"/>
					<stop  offset="0.92" style="stop-color:#D28E28"/>
					<stop  offset="1" style="stop-color:#944B00"/>
				</linearGradient>
				<path fill="url(#SVGID_10_)" d="M40.923,24.144c0.169-0.017,0.728-0.034,1.202,0.034c0.389,0.051,0.744,0.136,0.744,0.288
					v-0.897c0-0.355-0.152-0.491-0.931-0.593c-0.321-0.051-0.644-0.051-0.981-0.017c-1.693,0.102-3.031,0.88-4.826,0.643
					c-0.389-0.051-0.744-0.135-0.744-0.288v0.897c0,0.288,0.033,0.39,0.457,0.508c0.474,0.136,0.947,0.118,1.455,0.102
					C38.535,24.771,39.687,24.279,40.923,24.144z"/>
				
					<linearGradient id="SVGID_11_" gradientUnits="userSpaceOnUse" x1="1851.3223" y1="-2430.2554" x2="1820.3368" y2="-2436.2783" gradientTransform="matrix(0.1693 0 0 -0.1693 -273.2449 -388.2487)">
					<stop  offset="0" style="stop-color:#FFF7B2"/>
					<stop  offset="1" style="stop-color:#C58F30"/>
				</linearGradient>
				<path fill="url(#SVGID_11_)" d="M42.869,23.568v-0.017c0-0.355-0.152-0.491-0.931-0.592c-0.321-0.051-0.644-0.051-0.981-0.017
					c-1.693,0.102-3.031,0.88-4.826,0.643c-0.389-0.051-0.744-0.135-0.744-0.288v0.017c0,0.135,0.355,0.22,0.744,0.288
					c1.778,0.237,3.133-0.542,4.826-0.643c0.338-0.017,0.66-0.017,0.981,0.017C42.701,23.077,42.869,23.213,42.869,23.568z"/>
				
					<linearGradient id="SVGID_12_" gradientUnits="userSpaceOnUse" x1="1846.8193" y1="-2437.749" x2="1876.2628" y2="-2437.749" gradientTransform="matrix(0.1693 0 0 -0.1693 -273.2449 -388.2487)">
					<stop  offset="0" style="stop-color:#944B00"/>
					<stop  offset="1" style="stop-color:#FFFBDC"/>
				</linearGradient>
				<path fill="url(#SVGID_12_)" d="M40.923,24.144c0.169-0.017,0.728-0.034,1.202,0.034c0.254,0.034,0.49,0.084,0.627,0.152
					c0.066,0.034,0.152,0.102,0.084,0.169c-0.135,0.084-0.593,0.135-0.965,0.102c-0.237-0.018-0.475-0.102-0.491-0.187
					c0,0,0,0,0,0.017c0,0.085,0.237,0.17,0.491,0.203c0.406,0.034,0.932-0.017,0.998-0.118c0.018-0.017,0-0.034,0-0.051
					c0-0.017,0-0.017,0-0.034c-0.051-0.118-0.371-0.203-0.744-0.254C41.65,24.11,41.092,24.127,40.923,24.144
					c-1.236,0.152-2.388,0.626-3.624,0.677c-0.117,0-0.254,0.017-0.372,0.017c-0.406,0-0.778-0.017-1.168-0.135
					c-0.355-0.119-0.372-0.221-0.372-0.492v0.017c0,0.271,0.017,0.373,0.389,0.491c0.373,0.118,0.711,0.136,1.101,0.136
					c0.136,0,0.271,0,0.407-0.018C38.535,24.771,39.687,24.279,40.923,24.144z"/>
			</g>
		</g>
		<g>
			<g>
				<g>
					<g>
						<path fill="#532814" d="M40.567,23.264v0.051c0.288-0.034,1.829-0.237,2.286,0.321v-0.051
							C42.396,23.043,40.855,23.247,40.567,23.264z M40.567,23.924v0.051c0.288-0.034,1.727-0.186,2.286,0.22v-0.051
							C42.311,23.737,40.855,23.89,40.567,23.924z M35.387,23.619v0.051c0.541,0.423,2.166,0.271,2.455,0.237v-0.051
							C37.553,23.89,35.928,24.042,35.387,23.619z M35.387,24.178v0.068c0.474,0.61,2.166,0.389,2.455,0.356v-0.051
							C37.553,24.584,35.844,24.787,35.387,24.178z"/>
					</g>
					<g>
						<path fill="none" stroke="#FFF59B" stroke-width="0.058" stroke-miterlimit="10" d="M40.567,23.264v0.051
							c0.288-0.034,1.829-0.237,2.286,0.321v-0.051C42.396,23.043,40.855,23.247,40.567,23.264z M40.567,23.924v0.051
							c0.288-0.034,1.727-0.186,2.286,0.22v-0.051C42.311,23.737,40.855,23.89,40.567,23.924z M35.387,23.619v0.051
							c0.541,0.423,2.166,0.271,2.455,0.237v-0.051C37.553,23.89,35.928,24.042,35.387,23.619z M35.387,24.178v0.068
							c0.474,0.61,2.166,0.389,2.455,0.356v-0.051C37.553,24.584,35.844,24.787,35.387,24.178z"/>
					</g>
				</g>
			</g>
		</g>
		<g>
			<path fill="#532814" stroke="#FFF59B" stroke-width="0.058" stroke-miterlimit="10" d="M38.637,23.585
				c-0.051,0.119-0.102,0.237-0.135,0.373c-0.034,0.119-0.068,0.237-0.102,0.339c0,0.017-0.018,0.034,0,0.051
				c0,0.017,0,0.034,0,0.051s0.017,0.034,0.033,0.051c0,0,0,0,0,0.017c0,0.017,0,0-0.017,0c-0.017-0.017-0.051-0.034-0.067-0.051
				c-0.018-0.017-0.034-0.034-0.034-0.051c0-0.017,0-0.051,0-0.085c0-0.034,0.017-0.084,0.034-0.135
				c0.017-0.051,0.033-0.102,0.051-0.152c0.017-0.051,0.033-0.119,0.067-0.169c0.017-0.051,0.051-0.102,0.067-0.152l0,0l0,0l0,0l0,0
				c-0.017,0.017-0.033,0.034-0.067,0.068c-0.034,0.034-0.051,0.051-0.067,0.067c-0.034,0.017-0.051,0.051-0.085,0.085
				c-0.034,0.034-0.051,0.051-0.085,0.067c0,0,0,0,0-0.017v-0.017c0.018-0.017,0.051-0.034,0.085-0.068
				c0.034-0.034,0.067-0.051,0.085-0.084c0.033-0.034,0.067-0.051,0.084-0.085c0.034-0.034,0.051-0.051,0.085-0.084
				c0.017,0,0.017-0.017,0.034-0.017C38.62,23.585,38.62,23.585,38.637,23.585L38.637,23.585z"/>
			<path fill="#532814" stroke="#FFF59B" stroke-width="0.058" stroke-miterlimit="10" d="M38.535,24.33
				c0.018,0.017,0.034,0.017,0.068,0.017c0.017,0,0.051,0,0.067,0c0.051-0.017,0.102-0.034,0.152-0.085
				c0.051-0.051,0.085-0.084,0.118-0.152c0.034-0.067,0.068-0.118,0.085-0.169c0.017-0.068,0.034-0.119,0.051-0.169
				c-0.017,0.034-0.051,0.068-0.085,0.102c-0.033,0.034-0.067,0.051-0.118,0.068c-0.034,0-0.051,0-0.085,0
				c-0.033,0-0.033-0.034-0.051-0.068c0-0.034,0-0.068,0.018-0.102c0.017-0.034,0.033-0.085,0.051-0.119
				c0.033-0.034,0.051-0.068,0.084-0.102c0.034-0.034,0.068-0.051,0.119-0.051c0.017,0,0.033,0,0.051,0
				c0.017,0,0.033,0.017,0.033,0.017c0.018,0.017,0.018,0.017,0.018,0.034s0.017,0.017,0.017,0.034c0,0.034,0,0.068,0,0.119
				s-0.017,0.102-0.034,0.152c-0.017,0.051-0.051,0.119-0.084,0.187c-0.034,0.067-0.068,0.118-0.119,0.186
				c-0.033,0.051-0.084,0.085-0.118,0.119c-0.051,0.034-0.085,0.051-0.136,0.068c-0.017,0-0.051,0-0.067,0
				C38.569,24.381,38.553,24.364,38.535,24.33L38.535,24.33z M39.061,23.568c0-0.017-0.018-0.034-0.018-0.051
				C39.026,23.5,39.01,23.5,38.992,23.5c-0.033,0-0.067,0.017-0.084,0.051c-0.034,0.034-0.051,0.068-0.068,0.102
				c-0.017,0.034-0.033,0.068-0.051,0.119c-0.017,0.034-0.017,0.068,0,0.084c0,0.017,0.018,0.034,0.034,0.034s0.034,0.017,0.051,0
				c0.034,0,0.067-0.017,0.085-0.051c0.033-0.017,0.051-0.051,0.067-0.085c0.017-0.034,0.034-0.068,0.034-0.102
				C39.077,23.636,39.077,23.602,39.061,23.568z"/>
			<path fill="#532814" stroke="#FFF59B" stroke-width="0.058" stroke-miterlimit="10" d="M39.602,23.365
				c-0.051,0.118-0.102,0.237-0.135,0.372c-0.034,0.119-0.068,0.237-0.102,0.339c0,0.017-0.018,0.034,0,0.051
				c0,0.017,0,0.034,0,0.051s0.017,0.034,0.033,0.051c0,0,0,0,0,0.017c0,0,0,0-0.017,0c-0.017-0.017-0.051-0.034-0.067-0.051
				c-0.018-0.017-0.034-0.034-0.034-0.051c0-0.017,0-0.051,0-0.085c0-0.034,0.017-0.084,0.034-0.135
				c0.017-0.051,0.033-0.102,0.051-0.152c0.017-0.051,0.033-0.119,0.067-0.169c0.017-0.051,0.051-0.102,0.067-0.152l0,0l0,0l0,0l0,0
				c-0.017,0.017-0.033,0.034-0.067,0.068c-0.017,0.017-0.051,0.051-0.067,0.067c-0.034,0.017-0.051,0.051-0.085,0.085
				c-0.034,0.034-0.051,0.051-0.085,0.067c0,0,0,0,0-0.017v-0.017c0.018-0.017,0.051-0.034,0.085-0.068
				c0.034-0.034,0.067-0.051,0.085-0.084c0.033-0.034,0.067-0.051,0.084-0.084c0.034-0.034,0.051-0.051,0.085-0.085
				c0.017,0,0.017-0.017,0.034-0.017C39.585,23.365,39.585,23.365,39.602,23.365L39.602,23.365z"/>
			<path fill="#532814" stroke="#FFF59B" stroke-width="0.058" stroke-miterlimit="10" d="M40.195,24.008
				c-0.018,0-0.035-0.017-0.051-0.017c-0.018,0-0.051,0-0.086,0c-0.033,0-0.066,0-0.102,0c-0.033,0-0.084,0-0.117,0.017
				c-0.018,0.017-0.035,0.034-0.035,0.051c-0.016,0.017-0.033,0.034-0.051,0.051c-0.016,0.017-0.033,0.034-0.051,0.034
				c-0.017,0.017-0.033,0.017-0.051,0.017c-0.017,0-0.033,0-0.051,0c-0.017,0-0.017-0.017-0.033-0.017c0-0.017,0-0.034,0.017-0.051
				c0.017-0.017,0.017-0.034,0.034-0.051c0.017-0.017,0.033-0.034,0.067-0.051c0.034-0.017,0.052-0.017,0.085-0.034
				c0.018,0,0.033-0.017,0.051-0.017s0.033,0,0.051-0.017c0.033-0.034,0.068-0.084,0.102-0.119c0.033-0.051,0.068-0.102,0.084-0.135
				c0.035-0.051,0.051-0.085,0.068-0.136s0.018-0.084,0.018-0.118c0-0.034-0.018-0.068-0.051-0.085
				c-0.018-0.017-0.051-0.017-0.086-0.017c-0.033,0-0.051,0.017-0.066,0.034c-0.018,0.017-0.035,0.034-0.051,0.051
				c-0.018,0.017-0.035,0.034-0.035,0.051c-0.016,0.017-0.016,0.034-0.033,0.051c0,0,0,0-0.018,0c-0.016,0,0,0,0-0.017
				c0.018-0.017,0.035-0.051,0.051-0.067c0.018-0.034,0.035-0.051,0.051-0.068c0.018-0.017,0.051-0.051,0.068-0.068
				c0.033-0.017,0.051-0.034,0.084-0.034c0.018,0,0.035,0,0.035,0c0.016,0,0.033,0,0.033,0c0.018,0,0.033,0.017,0.033,0.034
				c0.018,0.017,0.018,0.034,0.018,0.051c0,0.034,0,0.068-0.018,0.119c-0.016,0.051-0.051,0.102-0.066,0.152
				c-0.035,0.051-0.068,0.119-0.102,0.169c-0.035,0.051-0.068,0.102-0.102,0.135c0.051,0,0.117-0.017,0.168-0.017s0.102,0,0.119,0
				s0.018,0,0.033,0.017c0,0.017,0,0.017,0,0.034C40.195,23.992,40.195,24.008,40.195,24.008L40.195,24.008z M39.805,24.008
				c0,0-0.016,0-0.033,0s-0.033,0-0.033,0c-0.052,0.017-0.103,0.017-0.119,0.034c-0.034,0.017-0.034,0.034-0.034,0.051
				c0,0,0,0.017,0.017,0.017c0.018,0,0.018,0,0.051,0c0.051-0.017,0.086-0.034,0.102-0.051
				C39.771,24.042,39.789,24.025,39.805,24.008z"/>
		</g>
	</g>
	<g>
		<g>
			<g>
				<path fill="#6E1810" d="M15.407,31.271c-0.288,0-0.271-0.406-0.271-0.524v-1.474h0.643v-0.372h-0.643v-0.813h-0.034h-0.254
					l-0.338,0.406v0.406h-0.39v0.372h0.39v1.609c0,0.406,0.237,0.744,0.66,0.744s0.813-0.254,0.813-0.254l-0.118-0.254
					C15.865,31.119,15.695,31.271,15.407,31.271z M17.118,28.851c-0.22,0-0.677,0-0.897,0.288c-0.085,0.119-0.102,0.305-0.102,0.525
					h0.373c0,0,0.017-0.441,0.457-0.441c0.135,0,0.271,0.018,0.355,0.086c0.254,0.203,0.203,0.677,0.203,0.677
					c-0.762,0-1.524,0.136-1.524,0.813c0,1.101,1.389,0.897,1.608,0.559l0.169,0.22h0.373c0,0,0-1.27,0-1.455
					C18.133,29.935,18.252,28.851,17.118,28.851z M17.507,30.967c0,0-0.152,0.271-0.406,0.271c-0.474,0-0.644-0.508-0.271-0.762
					c0.135-0.102,0.373-0.136,0.677-0.136V30.967z M8.686,30.713V29.9l0,0c0-0.084,0-2.031,0-2.031H8.076l-1.219,2.691l-1.236-2.691
					H4.978v3.69h0.356c0,0,0-1.659,0-2.76l1.287,2.76h0.203l1.219-2.692c0,0,0,1.575,0,1.626c0,0.457,0.051,0.778,0.203,0.981
					c0.322,0.406,0.931,0.34,0.931,0.34V31.56C9.194,31.56,8.686,31.695,8.686,30.713z M12.563,29.527
					c0-0.066,0.017-0.305,0.457-0.305c0.644,0,0.661,0.543,0.661,0.543h0.254c0.051-0.746-0.373-0.915-0.948-0.915
					c-0.83,0-1.033,0.423-1.033,0.763c0,0.931,1.439,0.829,1.439,1.337c0,0.067-0.017,0.305-0.542,0.305
					c-0.677,0-0.66-0.559-0.66-0.559h-0.254c0,0.339-0.102,0.931,0.948,0.931c0.931,0,1.101-0.474,1.101-0.744
					C14.019,29.935,12.563,30.053,12.563,29.527z M10.48,28.851c-0.694,0-1.253,0.626-1.253,1.389c0,0.762,0.559,1.388,1.253,1.388
					s1.253-0.626,1.253-1.388C11.733,29.477,11.175,28.851,10.48,28.851z M10.48,31.289c-0.339,0-0.593-0.475-0.593-1.05
					s0.271-1.05,0.593-1.05c0.338,0,0.593,0.475,0.593,1.05S10.802,31.289,10.48,31.289z M19.776,28.19
					c0.321,0,0.389,0.118,0.508,0.271l0.271-0.203c0,0-0.102-0.423-0.61-0.423c-0.846,0-1.134,0.339-1.134,0.981v0.085h-0.373v0.372
					h0.373c0,0.779,0,2.303,0,2.303c0.339,0,0.626,0,0.626,0s0-1.523,0-2.303h0.762v-0.372h-0.762v-0.067
					C19.42,28.647,19.454,28.19,19.776,28.19z M35.657,27.886h-0.542v0.254c0,0,0.136,0,0.187,0c0.305,0,0.305,0.237,0.305,0.524
					c0,1.084,0,2.912,0,2.912s0.288,0,0.626,0c0,0,0-2.675,0-2.844C36.232,28.207,36.232,27.886,35.657,27.886z M37.012,27.886
					H36.47v0.254c0,0,0.136,0,0.187,0c0.305,0,0.305,0.237,0.305,0.524c0,1.084,0,2.912,0,2.912s0.287,0,0.627,0
					c0,0,0-2.675,0-2.844C37.57,28.207,37.588,27.886,37.012,27.886z M39.195,28.851c-0.22,0-0.677,0-0.896,0.288
					c-0.085,0.119-0.102,0.305-0.102,0.525h0.372c0,0,0.017-0.441,0.457-0.441c0.136,0,0.271,0.018,0.355,0.086
					c0.254,0.203,0.203,0.677,0.203,0.677c-0.762,0-1.523,0.136-1.523,0.813c0,1.101,1.388,0.897,1.608,0.559l0.17,0.22h0.371
					c0,0,0-1.27,0-1.455C40.229,29.935,40.33,28.851,39.195,28.851z M39.585,30.967c0,0-0.152,0.271-0.406,0.271
					c-0.474,0-0.644-0.508-0.271-0.762c0.135-0.102,0.372-0.136,0.677-0.136V30.967z M42.091,28.851
					c-0.355,0-0.575,0.136-0.575,0.136v-0.254c0-0.508,0-0.83-0.576-0.83h-0.541v0.254c0,0,0.135,0,0.186,0
					c0.305,0,0.305,0.237,0.305,0.525c0,1.084,0,2.912,0,2.912h0.373l0.169-0.221c0,0,0.254,0.271,0.677,0.271
					c0.83,0,1.102-0.729,1.084-1.439C43.191,29.512,42.887,28.851,42.091,28.851z M41.955,31.271c-0.287,0-0.439-0.271-0.439-0.271
					v-1.642c0,0,0.236-0.137,0.439-0.137s0.594,0.119,0.594,0.966S42.294,31.271,41.955,31.271z M26.107,31.204
					c-0.102,0-0.947,0-0.947,0V29.85h1.455v-0.355H25.16v-1.253c0,0,0.813,0,0.914,0s0.609-0.067,0.609,0.626h0.254
					c0,0,0-0.439,0-0.508c0-0.067-0.033-0.474-0.475-0.474c-0.896,0-2.404,0-2.404,0v0.254c0,0,0.136,0,0.187,0
					c0.305,0,0.305,0.237,0.305,0.524c0,1.084,0,2.912,0,2.912h1.828c0,0,0.439,0.068,0.593-0.372l0.187-0.524l-0.254-0.068
					C26.887,30.611,26.785,31.204,26.107,31.204z M27.615,27.886h-0.542v0.254c0,0,0.136,0,0.187,0c0.305,0,0.305,0.237,0.305,0.524
					c0,1.084,0,2.912,0,2.912s0.287,0,0.626,0c0,0,0-2.675,0-2.844C28.19,28.207,28.19,27.886,27.615,27.886z M21.418,28.851
					c-0.22,0-0.677,0-0.897,0.288c-0.084,0.119-0.102,0.305-0.102,0.525h0.373c0,0,0.017-0.441,0.457-0.441
					c0.136,0,0.271,0.018,0.355,0.086c0.254,0.203,0.204,0.677,0.204,0.677c-0.762,0-1.524,0.136-1.524,0.813
					c0,1.101,1.388,0.897,1.608,0.559l0.169,0.22h0.373c0,0,0-1.27,0-1.455C22.434,29.935,22.536,28.851,21.418,28.851z
					 M21.808,30.967c0,0-0.152,0.271-0.407,0.271c-0.474,0-0.643-0.508-0.271-0.762c0.135-0.102,0.372-0.136,0.677-0.136V30.967z
					 M33.98,28.851c-0.22,0-0.677,0-0.896,0.288c-0.085,0.119-0.102,0.305-0.102,0.525h0.372c0,0,0.017-0.441,0.457-0.441
					c0.136,0,0.271,0.018,0.355,0.086c0.255,0.203,0.203,0.677,0.203,0.677c-0.762,0-1.523,0.136-1.523,0.813
					c0,1.101,1.388,0.897,1.608,0.559l0.17,0.22h0.372c0,0,0-1.27,0-1.455C34.997,29.935,35.115,28.851,33.98,28.851z M34.37,30.967
					c0,0-0.152,0.271-0.406,0.271c-0.474,0-0.644-0.508-0.271-0.762c0.135-0.102,0.372-0.136,0.677-0.136V30.967z M30.611,28.613
					c0-0.236,0.237-0.457,0.593-0.457c0.915,0,0.948,1,0.948,1h0.018h0.236c0,0,0-0.509,0-0.645c0-0.118-0.119-0.711-1.168-0.711
					c-1.05,0-1.186,0.694-1.186,0.932c0,1.27,1.879,1.253,1.879,2.082c0,0.068,0,0.491-0.744,0.491c-0.83,0-0.897-1.016-0.897-1.016
					h-0.237v0.745c0.051,0.22,0.39,0.643,1.304,0.643c0.575,0,1.186-0.321,1.186-0.998C32.542,29.41,30.611,29.443,30.611,28.613z"
					/>
			</g>
		</g>
	</g>
</g>
</svg>
